<?xml version="1.0" standalone="no"?><!DOCTYPE svg PUBLIC "-//W3C//DTD SVG 1.1//EN" "http://www.w3.org/Graphics/SVG/1.1/DTD/svg11.dtd"><svg t="1504750734778" class="icon" style="" viewBox="0 0 1048 1024" version="1.1" xmlns="http://www.w3.org/2000/svg" p-id="10742" xmlns:xlink="http://www.w3.org/1999/xlink" width="204.6875" height="200"><defs><style type="text/css"></style></defs><path d="M915.726 293.626H752.135V187.13c0-54.369-44.486-98.854-98.854-98.854H436.417c-54.369 0-98.856 44.484-98.856 98.854v106.496H173.966c-25.573 0-46.306 20.73-46.306 46.307V502.22h313.4v-55.194h203.092v55.194h317.884V339.933c0-25.577-20.734-46.307-46.31-46.307z m-271.574 0H445.547v-59.904c0-28.6 23.397-51.999 51.999-51.999h94.607c28.599 0 51.999 23.399 51.999 51.999v59.904z m2.243 356.49H443.304V548.572H127.66v315.025c0 25.579 20.733 46.308 46.306 46.308h741.762c25.578 0 46.31-20.73 46.31-46.308V548.573H646.394v101.543z" fill="" p-id="10743"></path><path d="M493.605 499.57h98.002v98h-98.002v-98z" fill="" p-id="10744"></path></svg>