<?xml version="1.0" standalone="no"?><!DOCTYPE svg PUBLIC "-//W3C//DTD SVG 1.1//EN" "http://www.w3.org/Graphics/SVG/1.1/DTD/svg11.dtd"><svg t="1504490804084" class="icon" style="" viewBox="0 0 1024 1024" version="1.1" xmlns="http://www.w3.org/2000/svg" p-id="874" xmlns:xlink="http://www.w3.org/1999/xlink" width="200" height="200"><defs><style type="text/css"></style></defs><path d="M807.6 195.1H216.4c-27.2 0-49.3 22-49.3 49.3v394.1c0 27.2 22.1 49.3 49.3 49.3h246.3v73.9H339.6c-13.6 0-24.6 11-24.6 24.6v24.6h394.1v-24.6c0-13.6-11-24.6-24.6-24.6H561.3v-73.9h246.3c27.2 0 49.3-22.1 49.3-49.3V244.4c0-27.3-22.1-49.3-49.3-49.3zM487.4 638.5c0-13.6 11-24.6 24.6-24.6 13.6 0 24.6 11 24.6 24.6 0 13.6-11 24.7-24.6 24.7-13.6 0-24.6-11.1-24.6-24.7z m-271-49.3V244.4h591.2v344.9H216.4v-0.1z" fill="" p-id="875"></path></svg>