<?xml version="1.0" standalone="no"?><!DOCTYPE svg PUBLIC "-//W3C//DTD SVG 1.1//EN" "http://www.w3.org/Graphics/SVG/1.1/DTD/svg11.dtd"><svg t="1505704945351" class="icon" style="" viewBox="0 0 1024 1024" version="1.1" xmlns="http://www.w3.org/2000/svg" p-id="8633" xmlns:xlink="http://www.w3.org/1999/xlink" width="200" height="200"><defs><style type="text/css"></style></defs><path d="M620.8 0h-227.2c-28.8 0-51.2 22.4-51.2 51.2 0 32 19.2 51.2 51.2 51.2h230.4c28.8 0 48-22.4 48-51.2-3.2-28.8-22.4-51.2-51.2-51.2zM800 70.4s-44.8 9.6-44.8 16c0 44.8-35.2 89.6-76.8 89.6H332.8C291.2 176 256 134.4 256 89.6c0-6.4-41.6-16-41.6-16H144C57.6 70.4 32 121.6 32 195.2v710.4C32 979.2 64 1024 153.6 1024h707.2c89.6 0 134.4-35.2 134.4-118.4V195.2c0-70.4-41.6-121.6-128-121.6H800v-3.2z m-48 704H259.2c-16 0-38.4-19.2-38.4-38.4 0-16 12.8-32 35.2-32h489.6c16 0 35.2 12.8 35.2 32 3.2 16-12.8 38.4-28.8 38.4z m0-188.8H262.4c-16 0-32-16-32-38.4 0-16 12.8-35.2 35.2-35.2h489.6c16 0 35.2 16 35.2 35.2 0 19.2-22.4 38.4-38.4 38.4z m0-192H262.4c-16 0-32-16-32-38.4 0-16 12.8-35.2 35.2-35.2h489.6c16 0 35.2 16 35.2 35.2 0 19.2-22.4 38.4-38.4 38.4z" p-id="8634" class="selected"></path></svg>