<?xml version="1.0" standalone="no"?><!DOCTYPE svg PUBLIC "-//W3C//DTD SVG 1.1//EN" "http://www.w3.org/Graphics/SVG/1.1/DTD/svg11.dtd"><svg t="1504750982098" class="icon" style="" viewBox="0 0 1024 1024" version="1.1" xmlns="http://www.w3.org/2000/svg" p-id="20442" xmlns:xlink="http://www.w3.org/1999/xlink" width="200" height="200"><defs><style type="text/css"></style></defs><path d="M640 328.533333c0 12.8-8.533333 21.333333-21.333333 21.333333l-213.333333 0C392.533333 349.866667 384 341.333333 384 328.533333L384 153.6C384 140.8 392.533333 128 405.333333 128l213.333333 0C631.466667 128 640 140.8 640 153.6L640 328.533333 640 328.533333zM640 328.533333" p-id="20443"></path><path d="M640 870.4c0 12.8-8.533333 21.333333-21.333333 21.333333l-213.333333 0C392.533333 896 384 883.2 384 870.4l0-174.933333c0-12.8 8.533333-21.333333 21.333333-21.333333l213.333333 0c12.8 0 21.333333 8.533333 21.333333 21.333333L640 870.4 640 870.4zM640 870.4" p-id="20444"></path><path d="M1024 870.4c0 12.8-8.533333 21.333333-21.333333 21.333333l-213.333333 0c-12.8 0-21.333333-8.533333-21.333333-21.333333l0-174.933333c0-12.8 8.533333-21.333333 21.333333-21.333333l213.333333 0c12.8 0 21.333333 8.533333 21.333333 21.333333L1024 870.4 1024 870.4zM1024 870.4" p-id="20445"></path><path d="M256 870.4C256 883.2 247.466667 896 234.666667 896l-213.333333 0C8.533333 896 0 883.2 0 870.4l0-174.933333c0-12.8 8.533333-21.333333 21.333333-21.333333l213.333333 0C247.466667 674.133333 256 682.666667 256 695.466667L256 870.4 256 870.4zM256 870.4" p-id="20446"></path><path d="M550.4 448 550.4 384l-76.8 0 0 64L93.866667 448l0 81.066667 0 4.266667L93.866667 640l72.533333 0 0-106.666667 307.2 0L473.6 640l76.8 0 0-106.666667L853.333333 533.333333 853.333333 640l76.8 0 0-106.666667 0-4.266667 0-81.066667L550.4 448zM550.4 448" p-id="20447"></path></svg>