<?xml version="1.0" standalone="no"?><!DOCTYPE svg PUBLIC "-//W3C//DTD SVG 1.1//EN" "http://www.w3.org/Graphics/SVG/1.1/DTD/svg11.dtd"><svg t="1504835228550" class="icon" style="" viewBox="0 0 1024 1024" version="1.1" xmlns="http://www.w3.org/2000/svg" p-id="22775" xmlns:xlink="http://www.w3.org/1999/xlink" width="200" height="200"><defs><style type="text/css"></style></defs><path d="M 964.917 997.473 L 512.031 997.473 l 0 0 l -0.065492 0 L 59.0816 997.473 C 26.4412 997.473 0.019431 970.364 0.019431 936.975 L 0.019431 634.439 c 0 -33.3895 26.4218 -60.4948 59.0622 -60.4948 c 32.6332 0 59.1236 27.1053 59.1236 60.4948 l 0 242.045 l 787.651 0 L 905.856 634.439 c 0 -33.3895 26.4924 -60.4948 59.0622 -60.4948 c 32.6363 0 59.0622 27.1053 59.0622 60.4948 l 0 302.535 C 1023.98 970.363 997.553 997.473 964.917 997.473 Z M 733.115 453.093 L 555.935 654.785 l -0.066515 0 c -10.7908 12.2899 -26.4248 20.0056 -43.8374 20.0056 c -17.477 0 -33.1121 -7.71573 -43.9704 -20.0056 l 0 0 L 290.882 453.093 l 0 0 c -9.4226 -10.7202 -15.1572 -24.9216 -15.1572 -40.4881 c 0 -33.3884 26.4238 -60.4938 59.056 -60.4938 c 17.4801 0 33.0477 7.71573 43.9039 20.0056 l 0 0 l 74.2204 84.5271 L 452.905 89.9261 l 0 0 c 0 -33.3864 26.4893 -60.4948 59.1236 -60.4948 c 32.6394 0 59.0632 27.1074 59.0632 60.4948 l 0 0 l 0 366.718 l 74.2143 -84.5271 l 0 0 c 10.7908 -12.2899 26.4914 -20.0056 43.9715 -20.0056 c 32.5688 0 58.9905 27.1043 58.9905 60.4938 C 748.271 428.172 742.534 442.374 733.115 453.093 L 733.115 453.093 Z" p-id="22776"></path></svg>