<?xml version="1.0" standalone="no"?><!DOCTYPE svg PUBLIC "-//W3C//DTD SVG 1.1//EN" "http://www.w3.org/Graphics/SVG/1.1/DTD/svg11.dtd"><svg t="1504835043929" class="icon" style="" viewBox="0 0 1024 1024" version="1.1" xmlns="http://www.w3.org/2000/svg" p-id="11378" xmlns:xlink="http://www.w3.org/1999/xlink" width="200" height="200"><defs><style type="text/css"></style></defs><path d="M15.515152 15.515152 15.515152 15.515152 15.515152 15.515152Z" p-id="11379"></path><path d="M17.470061 325.818182l131.878788 0 0-131.878788-131.878788 0 0 131.878788zM281.227636 193.939394l0 131.878788 725.333333 0 0-131.878788-725.333333 0zM17.470061 589.575758l131.878788 0 0-131.878788-131.878788 0 0 131.878788zM281.227636 589.575758l725.333333 0 0-131.878788-725.333333 0 0 131.878788zM17.470061 853.333333l131.878788 0 0-131.878788-131.878788 0 0 131.878788zM281.227636 853.333333l725.333333 0 0-131.878788-725.333333 0 0 131.878788z" p-id="11380"></path></svg>