<?xml version="1.0" standalone="no"?><!DOCTYPE svg PUBLIC "-//W3C//DTD SVG 1.1//EN" "http://www.w3.org/Graphics/SVG/1.1/DTD/svg11.dtd"><svg t="1504684805978" class="icon" style="" viewBox="0 0 1024 1024" version="1.1" xmlns="http://www.w3.org/2000/svg" p-id="91581" xmlns:xlink="http://www.w3.org/1999/xlink" width="200" height="200"><defs><style type="text/css"></style></defs><path d="M297.614282 620.811218c-15.541975 0-28.14092-12.599969-28.14092-28.14092L269.473361 227.009224c0-15.541975 12.598946-28.14092 28.14092-28.14092s28.14092 12.598946 28.14092 28.14092l0 365.661074C325.755202 608.212272 313.156256 620.811218 297.614282 620.811218z" p-id="91582"></path><path d="M761.538333 443.438485c-15.541975 0-28.14092-12.598946-28.14092-28.14092L733.397413 196.993606c0-15.541975 12.599969-28.14092 28.14092-28.14092s28.14092 12.598946 28.14092 28.14092l0 218.303958C789.679253 430.839539 777.080308 443.438485 761.538333 443.438485z" p-id="91583"></path><path d="M518.488785 509.612627c-15.541975 0-28.14092-12.598946-28.14092-28.14092L490.347864 294.539246c0-15.541975 12.599969-28.14092 28.14092-28.14092s28.14092 12.598946 28.14092 28.14092l0 186.931436C546.629705 497.013681 534.029736 509.612627 518.488785 509.612627z" p-id="91584"></path><path d="M956.909999 98.350982l-187.754175-48.095391c-6.564509-1.682315-13.502525-1.14508-19.73139 1.530866l-230.330876 98.915847L310.729997 52.237735c-8.337899-3.939729-18.006096-3.923356-26.330692 0.047072l-225.295186 107.447151c-10.68127 5.095042-17.48421 15.874549-17.48421 27.709085l0 619.10025c0 10.249435 5.114484 19.821441 13.633508 25.51921 5.125741 3.429099 11.076266 5.180999 17.067724 5.180999 3.966335 0 7.952112-0.768503 11.724019-2.328022l213.45144-88.225367 209.068619 88.142479c8.101515 3.416819 17.280572 3.194762 25.210172-0.611937l39.499619-18.958794-27.461445-54.92289-26.13831 12.545734-208.135364-87.748507c-3.812839-1.606591-7.868201-2.410909-11.926634-2.410909-3.984754 0-7.971555 0.775666-11.726066 2.328022l-182.869934 75.584466L103.017258 206.812229l194.656375-92.835362 207.700459 98.150414c7.956206 3.759627 17.144472 3.923356 25.229614 0.451278l233.44275-100.252285 154.544819 39.588647 0 548.137035-67.290569-17.97028-21.351284 57.848523 111.420649 29.756721c9.216919 2.461051 19.052938 0.496304 26.619264-5.311982 7.566326-5.810333 12.001335-14.808264 12.001335-24.347524l0-611.937107C979.991694 114.068965 970.492342 101.8292 956.909999 98.350982z" p-id="91585"></path><path d="M837.662081 639.677914c0-84.372619-68.466348-152.798035-152.824641-152.798035-84.388992 0-152.838967 68.429509-152.838967 152.798035 0 27.856441 7.610328 53.937446 20.594037 76.414367l-0.12996 0 14.591323 29.468149 28.652574 57.936527 89.060385 180.020026L806.072619 738.455615l11.084453-22.363334-0.151449 0c6.79373-11.726066 12.017708-24.448832 15.554254-37.807071C835.800687 665.930835 837.662081 653.015687 837.662081 639.677914zM684.823114 685.057451c-35.44528 0-64.206324-28.767184-64.206324-64.189951 0-35.455513 28.762067-64.221674 64.206324-64.221674 35.474956 0 64.201208 28.767184 64.201208 64.221674C749.023298 656.291291 720.299093 685.057451 684.823114 685.057451z" p-id="91586"></path></svg>