<?xml version="1.0" standalone="no"?><!DOCTYPE svg PUBLIC "-//W3C//DTD SVG 1.1//EN" "http://www.w3.org/Graphics/SVG/1.1/DTD/svg11.dtd"><svg t="1505703812315" class="icon" style="" viewBox="0 0 1024 1024" version="1.1" xmlns="http://www.w3.org/2000/svg" p-id="33389" xmlns:xlink="http://www.w3.org/1999/xlink" width="200" height="200"><defs><style type="text/css"></style></defs><path d="M467.2 774.4c32 19.2 51.2 19.2 89.6 0L966.4 576c19.2-6.4 25.6-83.2 25.6-108.8l-64 32L512 704 96 499.2l-64-32c0 25.6 6.4 96 25.6 115.2 0-6.4 409.6 192 409.6 192zM57.6 371.2l403.2 198.4c32 19.2 51.2 19.2 89.6 0l403.2-198.4c25.6-12.8 25.6-76.8 0-96L556.8 51.2C524.8 32 505.6 32 467.2 51.2L57.6 275.2c-32 19.2-32 76.8 0 96zM512 908.8L96 704l-64-32c0 25.6 6.4 96 25.6 108.8l403.2 198.4c32 19.2 51.2 19.2 89.6 0l403.2-198.4c19.2-6.4 25.6-83.2 25.6-108.8l-64 32L512 908.8z" fill="" p-id="33390"></path></svg>