<?xml version="1.0" standalone="no"?><!DOCTYPE svg PUBLIC "-//W3C//DTD SVG 1.1//EN" "http://www.w3.org/Graphics/SVG/1.1/DTD/svg11.dtd"><svg t="1505714584231" class="icon" style="" viewBox="0 0 1024 1024" version="1.1" xmlns="http://www.w3.org/2000/svg" p-id="81268" xmlns:xlink="http://www.w3.org/1999/xlink" width="200" height="200"><defs><style type="text/css"></style></defs><path d="M922.432 305.344c-17.6 0-32-14.4-32-32L890.432 211.2c0-17.6-14.4-32-32-32L39.424 179.2c-17.6 0-32 14.4-32 32l0 661.76c0 34.816 28.224 63.04 63.04 63.04l851.392 0c52.224 0 94.592-42.368 94.592-94.592L1016.448 337.344c0-17.6-14.4-32-32-32L922.432 305.344zM827.328 840.96c0 17.6-14.4 32-32 32L102.528 872.96c-17.6 0-32-14.4-32-32L70.528 274.24c0-17.6 14.4-32 32-32l692.8 0c17.6 0 32 14.4 32 32L827.328 840.96zM133.568 349.12c0-17.344 14.4-31.552 32-31.552l566.656 0c17.6 0 32 14.208 32 31.552 0 17.344-14.4 31.552-32 31.552L165.568 380.672C147.968 380.672 133.568 366.464 133.568 349.12zM512 475.264c0-17.344 14.4-31.552 32-31.552l188.288 0c17.6 0 32 14.208 32 31.552 0 17.344-14.4 31.552-32 31.552L544 506.816C526.4 506.816 512 492.608 512 475.264zM512 601.408c0-17.344 14.4-31.552 32-31.552l188.288 0c17.6 0 32 14.208 32 31.552 0 17.344-14.4 31.552-32 31.552L544 632.96C526.4 632.896 512 618.752 512 601.408zM512 727.552c0-17.344 14.4-31.552 32-31.552l125.184 0c17.6 0 32 14.208 32 31.552s-14.4 31.552-32 31.552L544 759.104C526.4 759.04 512 744.896 512 727.552zM133.568 475.712c0-17.6 14.4-32 32-32l251.328 0c17.6 0 32 14.4 32 32l0 251.328c0 17.6-14.4 32-32 32L165.568 759.04c-17.6 0-32-14.4-32-32L133.568 475.712zM133.568 443.712" p-id="81269"></path></svg>