<?xml version="1.0" standalone="no"?><!DOCTYPE svg PUBLIC "-//W3C//DTD SVG 1.1//EN" "http://www.w3.org/Graphics/SVG/1.1/DTD/svg11.dtd"><svg t="1504834850147" class="icon" style="" viewBox="0 0 1024 1024" version="1.1" xmlns="http://www.w3.org/2000/svg" p-id="3026" xmlns:xlink="http://www.w3.org/1999/xlink" width="200" height="200"><defs><style type="text/css"></style></defs><path d="M446.048 497.952C454.72 506.624 466.72 512 480 512c13.248 0 25.248-5.376 33.952-14.048l128-128c8.672-8.672 14.048-20.672 14.048-33.952C656 309.504 634.496 288 608 288c-13.248 0-25.248 5.376-33.952 14.048L480 396.128l-30.048-30.048C441.248 357.376 429.248 352 416 352c-26.528 0-48 21.504-48 48 0 13.248 5.376 25.248 14.048 33.952L446.048 497.952zM975.936 64 48.064 64c-26.496 0-48 21.504-48 48l0 640c0 26.496 21.504 48 48 48L384 800l0 66.784L304 944 304 960l416 0 0-16L640 864l0-64 335.936 0c26.496 0 48-21.504 48-48l0-640C1023.936 85.504 1002.432 64 975.936 64zM960 672 64 672 64 128l896 0L960 672z" p-id="3027"></path></svg>