<?xml version="1.0" standalone="no"?><!DOCTYPE svg PUBLIC "-//W3C//DTD SVG 1.1//EN" "http://www.w3.org/Graphics/SVG/1.1/DTD/svg11.dtd"><svg t="1505713615472" class="icon" style="" viewBox="0 0 1024 1024" version="1.1" xmlns="http://www.w3.org/2000/svg" p-id="36458" xmlns:xlink="http://www.w3.org/1999/xlink" width="200" height="200"><defs><style type="text/css"></style></defs><path d="M379.097543 204.598596c44.322664 0.043008 88.672977 0 133.052984 0v-0.044032c45.767523 0 91.448007 0.391167 137.271851-0.130047 38.255485-0.434175 67.032859-30.236569 67.205914-68.564758 0.173055-21.901237 0.08704-43.844458 0-65.804063 0-40.610677-29.384604-69.979921-70.06696-70.023952-89.684685-0.043008-179.339675-0.043008-268.996712 0-41.172851 0.044032-70.152976 29.111196-70.327056 70.457103-0.08704 20.745145-0.028672 41.518962 0 62.265131 0.03072 43.196268 28.635038 71.800586 71.859979 71.844618z m-3.150838-135.829039h272.262237v67.22025H375.946705V68.769557zM309.840563 546.015413c-2.600951 0-5.200878 0.144384-7.743461 0.577534-14.129104 2.31116-23.663535 10.4591-27.563938 24.097709-3.930099 13.636561-0.347135 25.656232 10.343389 35.249032 7.454695 6.761449 16.497608 8.553443 26.206118 8.495075 66.744092-0.114688 133.488183 0 200.259923 0 66.511645 0 132.966969 0 199.509334-0.115712 4.218866 0 8.552419-0.173055 12.685269-0.867325 14.532558-2.48524 26.176422-15.630283 27.130787-30.396312 1.386491-21.611446-13.811665-37.041025-36.810626-37.041025-134.701619-0.027648-269.374567-0.027648-404.016795 0.001024z" p-id="36459"></path><path d="M955.636243 167.094725c-1.560571-45.795171-33.46011-86.144729-78.300916-95.477434-18.926527-3.887091-38.891387-2.932726-58.394425-3.148789-19.271614-0.217087-34.295691 15.557579-34.035595 34.251659 0.259071 18.751424 15.371211 33.487757 34.729865 33.661837 11.382745 0.130048 22.710194-0.130048 34.035595 0.130047 11.06633 0.173055 20.052923 4.795376 26.784677 13.521874 5.951468 7.686118 7.077864 16.671687 7.077864 26.047399V917.788605c0 23.663535-13.983696 38.024062-37.127041 38.024062H173.088903c-22.334388 0-36.723586-14.533582-36.723586-36.810626-0.029696-248.684717-0.029696-497.356123 0-746.025481 0-22.030261 14.301135-36.376452 36.174724-36.549507 11.355097-0.08704 22.680498 0.259071 34.006924-0.131071 17.451972-0.60723 31.320981-14.822349 32.129938-32.490385 0.779261-17.234885-11.528153-33.746829-28.459935-34.858889-17.799107-1.21446-36.087685-1.950713-53.626696 0.606206-53.164874 7.682022-88.32789 49.76623-88.32789 103.508638-0.057344 124.327511-0.057344 248.671406-0.057344 372.954885 0 124.819029-0.058368 249.580714 0.059392 374.459135 0.028672 58.046265 45.188965 103.437982 103.033503 103.437982 227.188983 0.144384 454.34827 0.058368 681.507557 0.058368 14.851021 0 29.211548-2.659319 42.501999-9.246688 40.450934-19.764156 60.415793-52.58734 60.502833-97.458867V174.881194c-0.001024-2.599927-0.001024-5.185518-0.174079-7.786469z" p-id="36460"></path><path d="M307.673787 784.905604H640.264777c25.657256 0 51.315537 0.173055 77.058809-0.114688 18.83744-0.145408 33.516429-15.198156 33.429389-33.920908-0.086016-19.878844-15.110092-34.065291-36.375427-34.065291-103.669405-0.08704-207.51289 0-311.268312 0-31.637396 0-63.188776 0-94.827195-0.08704-11.325401 0-20.832185 3.987442-27.765665 12.94434-8.610787 10.97929-9.997278 23.346096-4.04581 35.885957 6.152171 12.886996 16.87239 19.35763 31.203221 19.35763zM307.904186 443.588115c60.329778 0.173055 120.745571 0.044032 181.104021 0.044032 30.192537 0 60.386097 0.08704 90.580682-0.044032 16.584647-0.08704 30.077849-10.61782 33.689485-25.917351 5.114863-21.987253-10.54614-42.039152-33.51643-42.168176-45.277029-0.173055-90.55201-0.044032-135.829039-0.044032-45.274981 0-90.55201-0.043008-135.826992 0.044032-15.602635 0-27.939744 8.509411-32.996239 22.1173-8.349667 22.593459 8.061924 45.881187 32.794512 45.968227z" p-id="36461"></path></svg>