<?xml version="1.0" standalone="no"?><!DOCTYPE svg PUBLIC "-//W3C//DTD SVG 1.1//EN" "http://www.w3.org/Graphics/SVG/1.1/DTD/svg11.dtd"><svg t="1504678963333" class="icon" style="" viewBox="0 0 1024 1024" version="1.1" xmlns="http://www.w3.org/2000/svg" p-id="2926" xmlns:xlink="http://www.w3.org/1999/xlink" width="200" height="200"><defs><style type="text/css"></style></defs><path d="M886.144 831.552l0.128-0.256-207.36-208.256c40.832-49.472 64.32-110.912 66.24-173.504 3.84-76.224-25.216-155.008-77.632-210.624-44.8-48.576-107.776-81.152-172.672-89.536-12.608-1.792-25.536-2.624-38.4-2.624-64.256 0-126.912 21.44-176.384 60.416C222.72 251.072 183.168 316.928 171.52 387.904 159.936 454.016 172.48 524.992 205.888 582.528c22.848 40 55.424 74.368 94.144 99.328 35.52 23.104 76.416 38.208 118.144 43.584 12.544 1.728 25.408 2.624 38.208 2.624 59.328 0 117.952-18.624 165.696-52.48l207.104 208.128 3.84 3.648 0.128-0.128C840 892.864 848.64 896 857.6 896c21.184 0 38.4-17.344 38.4-38.72C895.936 847.744 892.416 838.592 886.144 831.552M675.968 547.456c-33.92 69.696-102.144 120.64-178.048 132.992-35.52 6.208-72.96 4.288-107.84-5.504-68.096-18.752-126.336-68.416-155.904-132.992-34.24-71.616-29.952-161.856 10.88-229.888 36.352-62.848 100.48-107.008 171.392-118.08l5.056-0.768C424.128 192.768 426.816 192.384 429.44 192.064c8.768-0.896 17.664-1.408 26.496-1.408 36.224 0 72 7.808 103.552 22.72 57.664 26.56 103.68 75.968 126.144 135.552C710.208 412.544 706.624 486.72 675.968 547.456" p-id="2927"></path></svg>