<?xml version="1.0" standalone="no"?><!DOCTYPE svg PUBLIC "-//W3C//DTD SVG 1.1//EN" "http://www.w3.org/Graphics/SVG/1.1/DTD/svg11.dtd"><svg t="1505720863209" class="icon" style="" viewBox="0 0 1024 1024" version="1.1" xmlns="http://www.w3.org/2000/svg" p-id="3395" xmlns:xlink="http://www.w3.org/1999/xlink" width="200" height="200"><defs><style type="text/css"></style></defs><path d="M512 205.6L596 376c12 24 34.4 40 60 44l188.8 27.2-136 133.6c-19.2 18.4-27.2 44.8-23.2 71.2l32 188-168-89.6c-11.2-6.4-24-8.8-37.6-8.8-12.8 0-25.6 3.2-37.6 8.8l-168.8 88.8 32-188c4.8-25.6-4-52.8-23.2-71.2l-136-132.8 188.8-27.2C393.6 416 416 400 428 376L512 205.6m0-124.8c-5.6 0-11.2 3.2-14.4 8.8L370.4 348c-2.4 4.8-7.2 8-12 8.8L73.6 398.4c-13.6 1.6-18.4 17.6-8.8 27.2l206.4 200.8c4 4 5.6 8.8 4.8 14.4l-48.8 284c-1.6 10.4 6.4 18.4 16 18.4 2.4 0 4.8-0.8 7.2-1.6L505.6 808c2.4-1.6 4.8-1.6 7.2-1.6s4.8 0.8 7.2 1.6l255.2 133.6c2.4 1.6 4.8 1.6 7.2 1.6 9.6 0 17.6-8 16-18.4l-48.8-284c-0.8-4.8 0.8-10.4 4.8-14.4l206.4-200.8c9.6-9.6 4-25.6-8.8-27.2l-284.8-41.6c-5.6-0.8-9.6-4-12-8.8L526.4 89.6c-3.2-5.6-8.8-8.8-14.4-8.8z" p-id="3396"></path></svg>