<?xml version="1.0" standalone="no"?><!DOCTYPE svg PUBLIC "-//W3C//DTD SVG 1.1//EN" "http://www.w3.org/Graphics/SVG/1.1/DTD/svg11.dtd"><svg t="1504750850275" class="icon" style="" viewBox="0 0 1024 1024" version="1.1" xmlns="http://www.w3.org/2000/svg" p-id="16632" xmlns:xlink="http://www.w3.org/1999/xlink" width="200" height="200"><defs><style type="text/css"></style></defs><path d="M511.488 46.08C254.464 46.08 45.056 254.976 45.056 512s208.896 465.92 466.432 465.92c257.024 0 465.92-208.896 465.92-465.92S768.512 46.08 511.488 46.08z m0 829.44c-200.192 0-363.52-162.816-363.52-363.008s162.816-363.008 363.52-363.008c200.192 0 363.008 162.816 363.008 363.008S711.68 875.52 511.488 875.52z" p-id="16633"></path><path d="M716.288 485.376H540.672V289.28c0-23.04-18.944-42.496-42.496-42.496-23.04 0-42.496 18.944-42.496 42.496v238.592c0 23.04 18.944 42.496 42.496 42.496h218.112c24.064 0 42.496-18.944 42.496-42.496 0.512-23.552-18.432-42.496-42.496-42.496z" p-id="16634"></path></svg>